<svg width="533.9" height="74.7" viewBox="0 0 533.9 74.7" xmlns="http://www.w3.org/2000/svg"><g id="svgGroup" stroke-linecap="round" fill-rule="nonzero" font-size="9pt" stroke="#000" stroke-width="0.25mm" fill="#000" style="stroke:#000;stroke-width:0.25mm;fill:#000"><path d="M 203.2 43.7 L 203.2 74.2 L 196.1 74.2 L 196.1 44.4 Q 196.1 38.805 194.305 35.05 A 12.723 12.723 0 0 0 192.15 31.85 A 12.875 12.875 0 0 0 185.471 28.08 A 19.631 19.631 0 0 0 181 27.6 A 21.784 21.784 0 0 0 176.33 28.078 A 16.551 16.551 0 0 0 171.65 29.85 Q 167.7 32.1 165.55 36.35 A 19.137 19.137 0 0 0 163.872 41.36 Q 163.4 43.788 163.4 46.6 L 163.4 74.2 L 156.3 74.2 L 156.3 44.4 A 27.475 27.475 0 0 0 155.914 39.636 Q 155.058 34.78 152.3 31.85 A 13.087 13.087 0 0 0 145.492 28.06 A 19.785 19.785 0 0 0 141.1 27.6 A 21.121 21.121 0 0 0 136.143 28.158 A 16.865 16.865 0 0 0 131.8 29.85 Q 127.8 32.1 125.65 36.35 A 19.137 19.137 0 0 0 123.972 41.36 Q 123.5 43.788 123.5 46.6 L 123.5 74.2 L 116.4 74.2 L 116.4 21.7 L 123.2 21.7 L 123.2 35.9 L 122.1 33.4 Q 124.5 27.7 129.85 24.45 A 22.157 22.157 0 0 1 138.076 21.525 A 29.075 29.075 0 0 1 142.5 21.2 A 25.636 25.636 0 0 1 148.954 21.977 A 19.982 19.982 0 0 1 155.6 25.05 A 16.619 16.619 0 0 1 161.379 32.522 A 23.522 23.522 0 0 1 162.6 36.6 L 159.8 35.5 Q 162.1 29.1 167.95 25.15 A 22.848 22.848 0 0 1 177.338 21.548 A 30.167 30.167 0 0 1 182 21.2 A 28.203 28.203 0 0 1 187.593 21.729 A 21.234 21.234 0 0 1 193.15 23.65 A 17.109 17.109 0 0 1 200.382 30.79 A 20.784 20.784 0 0 1 200.55 31.1 Q 203.2 36.1 203.2 43.7 Z M 533.9 43.7 L 533.9 74.2 L 526.8 74.2 L 526.8 44.4 Q 526.8 38.805 525.005 35.05 A 12.723 12.723 0 0 0 522.85 31.85 A 12.875 12.875 0 0 0 516.171 28.08 A 19.631 19.631 0 0 0 511.7 27.6 A 21.784 21.784 0 0 0 507.03 28.078 A 16.551 16.551 0 0 0 502.35 29.85 Q 498.4 32.1 496.25 36.35 A 19.137 19.137 0 0 0 494.572 41.36 Q 494.1 43.788 494.1 46.6 L 494.1 74.2 L 487 74.2 L 487 44.4 A 27.475 27.475 0 0 0 486.614 39.636 Q 485.758 34.78 483 31.85 A 13.087 13.087 0 0 0 476.192 28.06 A 19.785 19.785 0 0 0 471.8 27.6 A 21.121 21.121 0 0 0 466.843 28.158 A 16.865 16.865 0 0 0 462.5 29.85 Q 458.5 32.1 456.35 36.35 A 19.137 19.137 0 0 0 454.672 41.36 Q 454.2 43.788 454.2 46.6 L 454.2 74.2 L 447.1 74.2 L 447.1 21.7 L 453.9 21.7 L 453.9 35.9 L 452.8 33.4 Q 455.2 27.7 460.55 24.45 A 22.157 22.157 0 0 1 468.776 21.525 A 29.075 29.075 0 0 1 473.2 21.2 A 25.636 25.636 0 0 1 479.654 21.977 A 19.982 19.982 0 0 1 486.3 25.05 A 16.619 16.619 0 0 1 492.079 32.522 A 23.522 23.522 0 0 1 493.3 36.6 L 490.5 35.5 Q 492.8 29.1 498.65 25.15 A 22.848 22.848 0 0 1 508.038 21.548 A 30.167 30.167 0 0 1 512.7 21.2 A 28.203 28.203 0 0 1 518.293 21.729 A 21.234 21.234 0 0 1 523.85 23.65 A 17.109 17.109 0 0 1 531.082 30.79 A 20.784 20.784 0 0 1 531.25 31.1 Q 533.9 36.1 533.9 43.7 Z M 368.9 43.7 L 368.9 74.2 L 361.8 74.2 L 361.8 44.4 A 26.47 26.47 0 0 0 361.395 39.608 Q 360.907 36.963 359.833 34.891 A 12.661 12.661 0 0 0 357.65 31.85 Q 353.609 27.712 346.393 27.603 A 26.007 26.007 0 0 0 346 27.6 A 23.5 23.5 0 0 0 341.069 28.094 A 17.937 17.937 0 0 0 336.25 29.85 Q 332.1 32.1 329.85 36.35 A 18.643 18.643 0 0 0 328.062 41.522 Q 327.6 43.881 327.6 46.6 L 327.6 74.2 L 320.5 74.2 L 320.5 0 L 327.6 0 L 327.6 36.1 L 326.2 33.4 Q 328.7 27.7 334.2 24.45 A 23 23 0 0 1 342.109 21.62 A 30.848 30.848 0 0 1 347.3 21.2 A 28.355 28.355 0 0 1 353.136 21.775 A 21.96 21.96 0 0 1 358.55 23.65 Q 363.4 26.1 366.15 31.1 A 20.661 20.661 0 0 1 368.124 36.359 Q 368.9 39.663 368.9 43.7 Z M 257.6 74.2 L 250.2 74.2 L 250.2 4.2 L 276.4 4.2 A 46.666 46.666 0 0 1 283.464 4.707 Q 287.362 5.305 290.643 6.605 A 27.668 27.668 0 0 1 291.7 7.05 A 23.855 23.855 0 0 1 297.818 10.915 A 20.708 20.708 0 0 1 301.55 15.25 A 21.221 21.221 0 0 1 304.554 23.028 A 28.778 28.778 0 0 1 305 28.2 A 26.586 26.586 0 0 1 304.248 34.662 A 20.834 20.834 0 0 1 301.55 40.95 A 21.685 21.685 0 0 1 293.813 48.131 A 26.988 26.988 0 0 1 291.7 49.2 A 31.064 31.064 0 0 1 284.435 51.42 Q 280.711 52.1 276.4 52.1 L 254.3 52.1 L 257.6 48.6 L 257.6 74.2 Z M 257.6 7.1 L 257.6 49.2 L 254.3 45.6 L 276.2 45.6 Q 286.7 45.6 292.15 41.05 A 14.826 14.826 0 0 0 297.33 31.71 A 21.871 21.871 0 0 0 297.6 28.2 Q 297.6 19.8 292.15 15.2 Q 286.7 10.6 276.2 10.6 L 254.3 10.6 L 257.6 7.1 Z M 46.6 74.2 L 0 74.2 L 0 4.2 L 7.4 4.2 L 7.4 67.8 L 46.6 67.8 L 46.6 74.2 Z M 73.3 44.5 L 91.4 44.5 L 91.4 49.8 L 73.5 49.8 Q 67.42 49.8 64.316 51.528 A 7.196 7.196 0 0 0 62.95 52.5 A 8.681 8.681 0 0 0 60.008 58.797 A 10.588 10.588 0 0 0 60 59.2 A 9.311 9.311 0 0 0 60.694 62.851 Q 61.545 64.87 63.44 66.353 A 10.908 10.908 0 0 0 63.5 66.4 Q 67 69.1 73.3 69.1 A 21.942 21.942 0 0 0 78.542 68.501 A 17.126 17.126 0 0 0 83.65 66.35 Q 88 63.6 90 58.4 L 91.6 63.3 Q 89.6 68.5 84.65 71.6 A 19.364 19.364 0 0 1 78.671 74.019 Q 76.177 74.594 73.285 74.683 A 34.965 34.965 0 0 1 72.2 74.7 Q 66.417 74.7 62.123 72.826 A 18.899 18.899 0 0 1 61.95 72.75 A 17.314 17.314 0 0 1 58.217 70.509 A 13.859 13.859 0 0 1 55.3 67.35 A 13.753 13.753 0 0 1 53.03 60.406 A 16.945 16.945 0 0 1 53 59.4 A 14.846 14.846 0 0 1 54.094 53.679 A 14.216 14.216 0 0 1 54.95 51.95 A 11.8 11.8 0 0 1 57.987 48.552 Q 59.302 47.536 60.996 46.717 A 21.107 21.107 0 0 1 61.35 46.55 A 19.287 19.287 0 0 1 65.116 45.301 Q 67.056 44.857 69.361 44.659 A 46.173 46.173 0 0 1 73.3 44.5 Z M 404 44.5 L 422.1 44.5 L 422.1 49.8 L 404.2 49.8 Q 398.12 49.8 395.016 51.528 A 7.196 7.196 0 0 0 393.65 52.5 A 8.681 8.681 0 0 0 390.708 58.797 A 10.588 10.588 0 0 0 390.7 59.2 A 9.311 9.311 0 0 0 391.394 62.851 Q 392.245 64.87 394.14 66.353 A 10.908 10.908 0 0 0 394.2 66.4 Q 397.7 69.1 404 69.1 A 21.942 21.942 0 0 0 409.242 68.501 A 17.126 17.126 0 0 0 414.35 66.35 Q 418.7 63.6 420.7 58.4 L 422.3 63.3 Q 420.3 68.5 415.35 71.6 A 19.364 19.364 0 0 1 409.371 74.019 Q 406.877 74.594 403.985 74.683 A 34.965 34.965 0 0 1 402.9 74.7 Q 397.117 74.7 392.823 72.826 A 18.899 18.899 0 0 1 392.65 72.75 A 17.314 17.314 0 0 1 388.917 70.509 A 13.859 13.859 0 0 1 386 67.35 A 13.753 13.753 0 0 1 383.73 60.406 A 16.945 16.945 0 0 1 383.7 59.4 A 14.846 14.846 0 0 1 384.794 53.679 A 14.216 14.216 0 0 1 385.65 51.95 A 11.8 11.8 0 0 1 388.687 48.552 Q 390.002 47.536 391.696 46.717 A 21.107 21.107 0 0 1 392.05 46.55 A 19.287 19.287 0 0 1 395.816 45.301 Q 397.756 44.857 400.061 44.659 A 46.173 46.173 0 0 1 404 44.5 Z M 97.1 74.2 L 90.3 74.2 L 90.3 62.6 L 90 60.7 L 90 41.3 A 19.203 19.203 0 0 0 89.596 37.237 Q 88.77 33.419 86.25 31 Q 83.18 28.053 77.663 27.518 A 26.609 26.609 0 0 0 75.1 27.4 Q 70 27.4 65.4 29.1 A 27.384 27.384 0 0 0 60.787 31.288 A 22.088 22.088 0 0 0 57.6 33.6 L 54.4 28.3 A 26.982 26.982 0 0 1 60.977 24.213 A 32.836 32.836 0 0 1 64 23.05 Q 69.6 21.2 75.8 21.2 A 33.041 33.041 0 0 1 81.993 21.744 Q 85.499 22.413 88.245 23.908 A 16.871 16.871 0 0 1 91.55 26.25 A 15.83 15.83 0 0 1 95.941 33.282 Q 96.774 35.877 97.008 39.039 A 34.664 34.664 0 0 1 97.1 41.6 L 97.1 74.2 Z M 427.8 74.2 L 421 74.2 L 421 62.6 L 420.7 60.7 L 420.7 41.3 A 19.203 19.203 0 0 0 420.296 37.237 Q 419.47 33.419 416.95 31 Q 413.88 28.053 408.363 27.518 A 26.609 26.609 0 0 0 405.8 27.4 Q 400.7 27.4 396.1 29.1 A 27.384 27.384 0 0 0 391.487 31.288 A 22.088 22.088 0 0 0 388.3 33.6 L 385.1 28.3 A 26.982 26.982 0 0 1 391.677 24.213 A 32.836 32.836 0 0 1 394.7 23.05 Q 400.3 21.2 406.5 21.2 A 33.041 33.041 0 0 1 412.693 21.744 Q 416.199 22.413 418.945 23.908 A 16.871 16.871 0 0 1 422.25 26.25 A 15.83 15.83 0 0 1 426.641 33.282 Q 427.474 35.877 427.708 39.039 A 34.664 34.664 0 0 1 427.8 41.6 L 427.8 74.2 Z" vector-effect="non-scaling-stroke"/></g></svg>